<?xml version="1.0" encoding="UTF-8" standalone="no"?>
<!-- Created with Inkscape (http://www.inkscape.org/) -->

<svg
   width="37.838459mm"
   height="34.323452mm"
   viewBox="0 0 37.838459 34.323452"
   version="1.1"
   id="svg5"
   xmlns="http://www.w3.org/2000/svg"
   xmlns:svg="http://www.w3.org/2000/svg">
  <defs
     id="defs2" />
  <g
     id="layer1"
     transform="translate(-51.292353,-154.0338)">
    <path
       id="path2528"
       style="color:#000000;fill:#ffffff;-inkscape-stroke:none"
       d="m 73.130937,166.53299 c -0.724591,0.009 -1.447171,0.14456 -2.132687,0.43356 l -15.847611,6.6797 c -1.566898,0.6605 -2.696987,2.02204 -3.320728,3.55482 -0.62374,1.53278 -0.763847,3.2943 -0.103353,4.8612 l 0.513664,1.21905 2.086178,-0.88108 -0.513664,-1.21853 c -0.36723,-0.87118 -0.317234,-2.06038 0.116789,-3.12695 0.434023,-1.06656 1.228432,-1.95304 2.099613,-2.32027 L 71.87675,169.0548 c 0.871182,-0.36723 2.062442,-0.31878 3.129008,0.11524 1.005236,0.40907 1.850198,1.13974 2.251542,1.95181 l 1.826245,-1.38182 c -0.728435,-1.23116 -1.912514,-2.13381 -3.224093,-2.66754 -0.766388,-0.31187 -1.590041,-0.50446 -2.41794,-0.53537 -0.103487,-0.004 -0.207062,-0.005 -0.310575,-0.004 z" />
    <path
       id="path2528-3"
       style="color:#000000;fill:#ffffff;-inkscape-stroke:none"
       d="m 80.509814,173.00649 -1.949751,1.47485 c 0.104017,0.73723 -0.0074,1.57964 -0.323495,2.35644 -0.434022,1.06657 -1.228434,1.9515 -2.099613,2.31873 l -15.848129,6.68124 c -0.871175,0.36723 -2.061924,0.31673 -3.128491,-0.1173 -1.066566,-0.43402 -1.953041,-1.22843 -2.320272,-2.09962 l -0.513663,-1.21853 -2.086178,0.87902 0.513664,1.21853 c 0.660494,1.56689 2.019978,2.69492 3.552755,3.31866 1.532776,0.62374 3.294309,0.76592 4.861202,0.10542 l 15.847611,-6.6797 c 1.566896,-0.66049 2.696988,-2.01998 3.320728,-3.55275 0.600438,-1.47552 0.752279,-3.16319 0.173632,-4.68499 z" />
    <path
       id="path2528-6"
       style="color:#000000;fill:#ffffff;-inkscape-stroke:none"
       d="m 81.177474,154.03453 c -1.34944,-0.019 -2.706722,0.33331 -3.808553,1.16685 l -13.716476,10.37456 c -1.356102,1.02587 -2.114724,2.62261 -2.341975,4.26176 -0.02436,0.17569 -0.04117,0.35272 -0.05323,0.5302 l 2.485636,-1.048 c 0.257254,-0.8065 0.709832,-1.50823 1.276408,-1.93684 l 13.714925,-10.37507 c 0.753983,-0.57037 1.92021,-0.81649 3.060795,-0.65836 1.140584,0.15813 2.196897,0.71105 2.767273,1.46503 l 0.796851,1.05626 1.807125,-1.36684 -0.798918,-1.05471 c -1.025866,-1.3561 -2.620539,-2.1168 -4.259688,-2.34405 -0.307341,-0.0426 -0.618767,-0.0664 -0.930176,-0.0708 z m -17.082162,19.00504 -2.106848,0.88883 c 0.123428,0.22347 0.260834,0.44086 0.417546,0.64802 l 0.797367,1.0542 1.806608,-1.36684 -0.79685,-1.05471 c -0.04101,-0.0542 -0.0802,-0.1112 -0.117823,-0.1695 z" />
    <path
       style="fill:none;stroke:#ffffff;stroke-width:2.265;stroke-linecap:butt;stroke-linejoin:miter;stroke-dasharray:none;stroke-opacity:1"
       d="m 86.262867,158.1869 0.798116,1.05503 c 1.596237,2.11009 1.082395,5.81641 -1.027692,7.41265 l -13.715555,10.37557 c -2.110079,1.59624 -5.8164,1.08239 -7.412643,-1.0277 l -0.798115,-1.05503"
       id="path2528-3-7" />
  </g>
</svg>
