<?xml version="1.0" encoding="UTF-8" standalone="no"?>
<!-- Created with Inkscape (http://www.inkscape.org/) -->

<svg
   width="32.296227mm"
   height="32.296223mm"
   viewBox="0 0 32.296227 32.296223"
   version="1.1"
   id="svg5"
   xmlns="http://www.w3.org/2000/svg"
   xmlns:svg="http://www.w3.org/2000/svg">
  <defs
     id="defs2" />
  <g
     id="layer1"
     transform="translate(-88.413947,-137.01189)">
    <path
       id="path111"
       style="fill:#000000;fill-opacity:1;stroke:none;stroke-width:4.06501;stroke-linecap:round;stroke-linejoin:round"
       d="m 104.56231,137.01189 a 16.148224,16.148224 0 0 0 -16.148363,16.14836 16.148224,16.148224 0 0 0 16.148363,16.14786 16.148224,16.148224 0 0 0 16.14786,-16.14786 16.148224,16.148224 0 0 0 -16.14786,-16.14836 z m 0.62529,3.06027 a 14.31824,14.31824 0 0 1 14.3185,14.31799 14.31824,14.31824 0 0 1 -14.3185,14.31851 14.31824,14.31824 0 0 1 -14.317993,-14.31851 14.31824,14.31824 0 0 1 14.317993,-14.31799 z" />
    <path
       id="rect3484"
       style="fill:#e6e6e6;fill-opacity:1;stroke:none;stroke-width:0.233;stroke-linecap:round;stroke-linejoin:round;stroke-dasharray:none;stroke-opacity:1"
       d="m 107.22365,138.86862 c -0.42512,0.006 -0.86075,0.0469 -1.3038,0.12712 -0.51747,0.0963 -1.02129,0.2445 -1.50378,0.44339 -1.90589,0.78434 -3.56771,2.20029 -4.625043,4.00699 -0.5327,0.91025 -0.901,1.89947 -1.10536,2.90886 h -5.2e-4 c -0.31121,1.52135 -0.23763,3.10503 0.22583,4.61471 0.80832,2.30475 2.091483,3.93908 3.223063,5.16506 1.07951,1.33093 2.02127,2.27285 2.34146,3.25096 0.47336,1.10597 0.37591,2.58441 -0.20412,3.67161 -0.63747,1.24567 -1.98512,2.17652 -3.3197,2.44585 -1.674913,0.35701 -3.414863,-0.25164 -4.527373,-1.16685 -2.66493,-2.16942 -2.22209,-4.85449 -2.22209,-4.85449 0,0 -1.5,2.47765 1.00511,5.96139 1.09397,1.50867 3.16001,2.99856 5.934523,3.07114 2.24316,0.0437 4.76379,-0.8983 6.5257,-3.07424 1.55428,-1.95342 2.30028,-4.67707 1.63659,-7.46466 -0.60978,-2.20556 -1.74198,-3.93283 -2.80913,-5.30458 -0.92712,-1.36556 -1.79653,-2.45304 -1.9513,-3.37861 -0.14849,-0.54502 -0.15555,-1.17218 -0.0398,-1.75958 0.0798,-0.39422 0.21941,-0.76211 0.41031,-1.08831 0.38987,-0.66616 1.01935,-1.21061 1.76062,-1.51567 0.18004,-0.0738 0.36176,-0.1431 0.54053,-0.20412 0.93678,-0.33391 2.19834,-0.49153 3.36155,-0.23978 0.20081,0.0412 0.39709,0.0962 0.5886,0.16072 l -1.74305,1.79214 c 1.19904,1.16604 7.6583,1.72061 8.85734,2.88664 -1.19903,-1.16602 -1.93359,-7.6076 -3.13262,-8.77362 l -1.54978,1.5937 c -0.21702,-0.32535 -0.47143,-0.6498 -0.77463,-0.96635 -1.30597,-1.347 -3.30351,-2.34036 -5.59914,-2.30942 z" />
  </g>
</svg>
