<?xml version="1.0" encoding="UTF-8" standalone="no"?>
<!-- Created with Inkscape (http://www.inkscape.org/) -->

<svg
   width="48.012875mm"
   height="67.688728mm"
   viewBox="0 0 48.012875 67.688729"
   version="1.1"
   id="svg12005"
   xmlns="http://www.w3.org/2000/svg"
   xmlns:svg="http://www.w3.org/2000/svg">
  <defs
     id="defs12002" />
  <g
     id="layer1"
     transform="translate(-95.121884,-113.81113)">
    <path
       style="color:#000000;fill:#1a1a1a;stroke-width:4.665;stroke-linecap:round"
       d="m 59.579493,93.230378 h 25.46586"
       id="path3387" />
    <path
       id="path13955"
       style="color:#000000;fill:#ffffff;fill-opacity:1;stroke-linejoin:round;-inkscape-stroke:none"
       d="m 128.06247,121.89437 v 9.07438 a 1.5826582,1.5826582 0 0 0 1.58388,1.58182 h 9.07231 v -0.40825 l -2.75487,-2.75539 h -4.73511 v -4.73614 l -2.7559,-2.75642 z" />
    <path
       id="path12138"
       style="color:#000000;fill:#ffffff;stroke-linejoin:round;-inkscape-stroke:none"
       d="m 107.15608,117.48052 c -1.85041,0 -3.517,0.87632 -4.75785,2.11718 -1.24086,1.24085 -2.11718,2.90536 -2.11718,4.75578 v 1.49087 h 3.16621 v -1.49087 c 0,-0.79542 0.44607,-1.77415 1.18959,-2.51767 0.74352,-0.74352 1.72382,-1.19115 2.51923,-1.19115 z m 4.6638,0 v 3.16414 h 17.17053 l 10.97814,10.98021 v 42.99996 c 0,0.79541 -0.44556,1.77623 -1.18908,2.51975 -0.74352,0.74351 -1.72433,1.18959 -2.51974,1.18959 h -29.10365 c -0.79541,0 -1.77571,-0.44608 -2.51923,-1.18959 -0.74352,-0.74352 -1.18959,-1.72434 -1.18959,-2.51975 v -44.11668 h -3.16621 v 44.11668 c 0,1.85042 0.87632,3.517 2.11718,4.75785 1.24085,1.24086 2.90743,2.11718 4.75785,2.11718 h 29.10365 c 1.85041,0 3.517,-0.87632 4.75785,-2.11718 1.24085,-1.24085 2.11718,-2.90744 2.11718,-4.75785 v -43.65625 a 1.5826582,1.5826582 0 0 0 -0.46302,-1.11879 l -11.90625,-11.90625 a 1.5826582,1.5826582 0 0 0 -1.11879,-0.46302 z" />
    <path
       style="color:#000000;fill:#ffffff;stroke-linecap:round"
       d="m 96.754704,126.54355 a 1.6325001,1.6325001 0 0 0 -1.63282,1.63282 1.6325001,1.6325001 0 0 0 1.63282,1.63281 h 25.464836 a 1.6325001,1.6325001 0 0 0 1.63281,-1.63281 1.6325001,1.6325001 0 0 0 -1.63281,-1.63282 z"
       id="path1715" />
    <path
       style="color:#000000;fill:#ffffff;stroke-linecap:round;-inkscape-stroke:none"
       d="m 109.48712,113.81113 a 1.6325001,1.6325001 0 0 0 -1.63281,1.63281 v 25.46484 a 1.6325001,1.6325001 0 0 0 1.63281,1.63281 1.6325001,1.6325001 0 0 0 1.63281,-1.63281 v -25.46484 a 1.6325001,1.6325001 0 0 0 -1.63281,-1.63281 z"
       id="path1715-7" />
  </g>
</svg>
